<svg height="90" width="90" viewBox="0 0 90 90" xmlns="http://www.w3.org/2000/svg">
	<path d="M0 30H6V60H0V30Z" />
	<path d="M60 1.31134e-06V6L30 6V0L60 1.31134e-06Z" />
	<path d="M90 60H84V30H90V60Z" />
	<path d="M30 90V84L60 84V90L30 90Z" />
	<path d="M6 24H12V30H6V24Z" />
	<path d="M66 6V12L60 12V6H66Z" />
	<path d="M84 66H78V60H84V66Z" />
	<path d="M24 84V78H30V84H24Z" />
	<path d="M12 18H18V24H12V18Z" />
	<path d="M72 12V18H66V12L72 12Z" />
	<path d="M78 72H72V66H78V72Z" />
	<path d="M18 78V72H24V78H18Z" />
	<path d="M18 12H24V18H18V12Z" />
	<path d="M78 18V24H72V18L78 18Z" />
	<path d="M72 78H66V72H72V78Z" />
	<path d="M12 72L12 66H18V72H12Z" />
	<path d="M24 6H30V12H24V6Z" />
	<path d="M84 24V30L78 30V24H84Z" />
	<path d="M66 84L60 84V78H66V84Z" />
	<path d="M6 66V60H12V66H6Z" />
</svg>
